<?xml version="1.0" encoding="UTF-8"?>
<svg id="Layer_1" xmlns="http://www.w3.org/2000/svg" version="1.1" viewBox="0 0 753 361">
  <!-- Generator: Adobe Illustrator 29.5.1, SVG Export Plug-In . SVG Version: 2.1.0 Build 141)  -->
  <defs>
    <style>
      .st0 {
        fill: #f9eab0;
      }

      .st1 {
        font-family: TafelSansPro-Bold, 'Tafel Sans Pro';
        font-size: 209.37px;
        font-weight: 700;
      }

      .st1, .st2 {
        isolation: isolate;
      }

      .st1, .st3 {
        fill: #a56a43;
      }

      .st4 {
        fill: #56595e;
      }

      .st5 {
        display: none;
      }

      .st6 {
        fill: #e57e25;
      }

      .st7 {
        fill: #f0c419;
      }

      .st8 {
        fill: #bdc3c7;
      }

      .st9 {
        fill: #95a5a5;
      }
    </style>
  </defs>
  <g id="Layer_11" data-name="Layer_1">
    <path id="Shape" class="st7" d="M497.61,308.36l-171.25,41.7c-1.25.32-2.57.34-3.83.07-3.3-.68-5.91-3.21-6.69-6.48-2.39-9.73-10.13-17.23-19.93-19.33-3.79-.82-7.71-.78-11.47.13-4.65,1.13-9.35-1.69-10.54-6.33l-28.72-118.44-10.17-41.83c-.33-1.25-.35-2.57-.07-3.83.7-3.26,3.22-5.83,6.46-6.61,9.7-2.38,17.2-10.08,19.31-19.84.8-3.82.73-7.78-.2-11.58-.56-2.25-.19-4.62,1.01-6.6s3.15-3.39,5.4-3.93L646.34,13.25c1.25-.32,2.57-.34,3.83-.07,3.3.68,5.91,3.21,6.69,6.48,2.38,9.7,10.08,17.2,19.84,19.31,3.82.8,7.78.73,11.58-.2,2.25-.56,4.62-.19,6.6,1.01s3.39,3.15,3.93,5.4l38.91,160.18c.32,1.25.34,2.57.07,3.83-.68,3.3-3.21,5.91-6.48,6.69-6.71,1.61-12.51,5.84-16.09,11.73s-4.67,12.98-3.02,19.69c.55,2.23.18,4.59-1.02,6.55s-3.13,3.36-5.37,3.89l-3.28.81-90.4,22.01"/>
    <path id="Shape1" class="st6" d="M348.48,183.9l8.42-2.05c4.45-1.3,7.09-5.88,5.99-10.38s-5.55-7.35-10.1-6.46l-16.84,4.1-16.84,4.11c-3.93.97-6.67,4.52-6.6,8.56.06,4.04,2.91,7.51,6.86,8.35,1.27.27,2.59.25,3.86-.07l8.42-2.05,16.39,67.46c.79,3.24,3.36,5.73,6.62,6.43,1.27.27,2.59.25,3.86-.07,2.24-.54,4.16-1.96,5.36-3.92s1.56-4.33,1.02-6.56l-16.41-67.45h0Z"/>
    <path id="Shape2" class="st6" d="M388.59,165.21c-1.3-4.45-5.88-7.09-10.38-5.99-4.51,1.1-7.35,5.55-6.46,10.1l18.44,75.9c.79,3.24,3.36,5.73,6.62,6.43,1.27.27,2.59.25,3.86-.07,2.24-.54,4.16-1.96,5.36-3.92s1.56-4.33,1.02-6.56l-18.44-75.88h-.02Z"/>
    <path id="Shape3" class="st6" d="M651.57,181.67l-16.4-67.45,8.42-2.06c4.47-1.29,7.14-5.88,6.03-10.4-1.1-4.52-5.58-7.37-10.15-6.45l-33.69,8.2c-3.14.61-5.68,2.9-6.62,5.95s-.13,6.38,2.11,8.65,5.55,3.14,8.62,2.24l8.42-2.05,16.4,67.45c1.3,4.45,5.88,7.09,10.38,5.99,4.51-1.1,7.35-5.55,6.46-10.1h0l.02.03Z"/>
    <path id="Shape4" class="st6" d="M467.32,195.18c-2.24.54-4.17,1.95-5.37,3.92s-1.56,4.33-1.02,6.57c1.35,4.6.07,9.58-3.35,12.94-3.42,3.37-8.41,4.58-12.99,3.16s-8.01-5.24-8.93-9.95l-8.2-33.73c-1.69-6.98,2.58-14,9.56-15.71,6.98-1.69,14,2.58,15.71,9.56.61,3.14,2.9,5.68,5.95,6.62s6.38.13,8.65-2.11c2.28-2.24,3.14-5.55,2.24-8.62-2.37-10.75-10.38-19.38-20.92-22.55-10.54-3.17-21.98-.38-29.88,7.28s-11.04,19.01-8.2,29.64l8.2,33.69c1.88,7.85,6.83,14.62,13.75,18.78,2.93,1.79,6.13,3.07,9.48,3.79,10.22,2.18,20.84-1.05,28.11-8.55,7.28-7.49,10.19-18.2,7.72-28.35-.54-2.25-1.96-4.18-3.93-5.38s-4.35-1.56-6.59-1.01h.01Z"/>
    <path id="Shape5" class="st6" d="M546.55,200.96l-39.32-24.09,23.74-40.01c1.71-2.67,1.82-6.06.3-8.84s-4.44-4.51-7.61-4.51-6.09,1.72-7.61,4.5l-20.78,35.1-5.47-22.46c-.61-3.14-2.9-5.68-5.95-6.62s-6.38-.13-8.65,2.11c-2.28,2.24-3.14,5.55-2.24,8.62l18.44,75.89c.79,3.24,3.36,5.74,6.61,6.44,1.27.27,2.59.25,3.86-.07,2.24-.54,4.17-1.95,5.37-3.92s1.56-4.33,1.02-6.57l-5.47-22.46,34.59,21.62c2.63,1.72,5.98,1.88,8.76.42s4.56-4.3,4.65-7.44-1.52-6.08-4.22-7.7l-.02-.03v.02Z"/>
    <path id="Shape6" class="st6" d="M598.93,185.53l-25.27,6.15-6.15-25.27,16.84-4.1c4.45-1.3,7.09-5.88,5.99-10.38-1.1-4.51-5.55-7.35-10.1-6.46l-16.84,4.1-4.1-16.84,25.27-6.15c3.14-.61,5.68-2.9,6.62-5.95s.13-6.38-2.11-8.65-5.55-3.14-8.62-2.24l-33.69,8.2c-2.24.54-4.16,1.96-5.36,3.92s-1.56,4.33-1.02,6.56l8.19,33.73,10.25,42.16c.79,3.24,3.36,5.73,6.62,6.43,1.27.27,2.59.25,3.86-.07l33.69-8.2c4.45-1.3,7.09-5.88,5.99-10.38-1.1-4.51-5.55-7.35-10.1-6.46l.03-.1h0Z"/>
    <path id="Shape7" class="st0" d="M672.6,230.14l-17.55,4.25c-3.07.9-6.38.04-8.62-2.24s-3.05-5.6-2.11-8.65,3.49-5.34,6.62-5.95l17.26-4.19c4.68-1.15,9.42,1.67,10.63,6.34.58,2.21.24,4.56-.93,6.53s-3.08,3.37-5.3,3.92h0ZM620.52,242.81l-17.27,4.19c-3.07.9-6.38.04-8.62-2.24s-3.05-5.6-2.11-8.65,3.49-5.34,6.62-5.95l17.27-4.2c4.55-.89,9,1.95,10.1,6.46s-1.54,9.08-5.99,10.38h0ZM568.74,255.39l-17.26,4.19c-3.07.9-6.38.04-8.62-2.24s-3.05-5.6-2.11-8.65,3.49-5.34,6.62-5.95l17.26-4.19c4.55-.89,9,1.95,10.1,6.46s-1.54,9.08-5.99,10.38h0ZM516.95,267.98l-17.27,4.19c-4.55.89-9-1.95-10.1-6.46-1.1-4.51,1.54-9.08,5.99-10.38l17.27-4.2c4.55-.89,9,1.95,10.1,6.46,1.1,4.51-1.54,9.08-5.99,10.38h0ZM465.16,280.56l-17.26,4.19c-3.07.9-6.38.04-8.62-2.24s-3.05-5.6-2.11-8.65,3.49-5.34,6.62-5.95l17.26-4.19c3.07-.9,6.38-.04,8.62,2.24s3.05,5.6,2.11,8.65-3.49,5.34-6.62,5.95ZM413.38,293.14l-17.27,4.2c-4.55.89-9-1.95-10.1-6.46-1.1-4.51,1.54-9.08,5.99-10.38l17.27-4.19c3.07-.9,6.38-.04,8.62,2.24s3.05,5.6,2.11,8.65-3.49,5.34-6.62,5.95h0ZM361.59,305.75l-17.26,4.19c-4.55.89-9-1.95-10.1-6.46-1.1-4.51,1.54-9.08,5.99-10.38l17.26-4.19c3.07-.9,6.38-.04,8.62,2.24s3.05,5.6,2.11,8.65-3.49,5.34-6.62,5.95h0ZM314.18,296.9c-3.87.92-7.87-.91-9.7-4.44-1.3-2.49-2.29-5.13-2.95-7.87l-2.69-11.1c-.9-3.07-.04-6.38,2.24-8.62s5.6-3.05,8.65-2.11,5.34,3.49,5.95,6.62l2.7,11.13c.33,1.37.82,2.69,1.47,3.94,1.23,2.37,1.3,5.17.2,7.59s-3.26,4.21-5.85,4.84h-.02v.02ZM692.18,203.78c-.54.13-1.09.21-1.64.24-2.3.11-4.55-.69-6.26-2.24s-2.73-3.71-2.84-6.01c-.05-1.14-.21-2.26-.48-3.37l-3-12.34c-.87-4.54,1.98-8.97,6.47-10.06s9.05,1.53,10.37,5.96l3.07,12.35c.53,2.18.85,4.4.96,6.64.19,4.16-2.6,7.87-6.66,8.84h.01ZM300.92,245.34c-4.65,1.13-9.34-1.72-10.48-6.38l-4.26-17.28c-.9-3.07-.04-6.38,2.24-8.62s5.6-3.05,8.65-2.11,5.34,3.49,5.95,6.62l4.19,17.26c1.14,4.64-1.69,9.33-6.32,10.49h.03v.02ZM680.09,151.92c-2.24.54-4.6.18-6.57-1.02s-3.38-3.13-3.92-5.37l-4.19-17.26c-.87-4.54,1.98-8.97,6.47-10.06s9.05,1.53,10.37,5.96l4.2,17.25c.54,2.24.18,4.6-1.02,6.57s-3.13,3.38-5.37,3.92h.03ZM288.31,193.55c-2.24.54-4.6.18-6.57-1.02-1.97-1.2-3.38-3.13-3.92-5.37l-2.99-12.19c-.55-2.25-.87-4.56-.97-6.88-.12-3.11,1.43-6.04,4.06-7.7s5.95-1.78,8.69-.33,4.52,4.26,4.63,7.36c.04,1.16.2,2.31.47,3.44l2.96,12.17c.55,2.24.19,4.61-1.01,6.58s-3.13,3.39-5.37,3.93h.02ZM667.48,100.14c-2.24.54-4.6.18-6.57-1.02-1.97-1.2-3.38-3.13-3.92-5.37l-2.66-10.98c-.34-1.4-.85-2.75-1.52-4.02-2.24-4.24-.62-9.49,3.62-11.73s9.49-.62,11.73,3.62c1.34,2.55,2.35,5.24,3.04,8.04l2.67,10.99c.54,2.24.18,4.6-1.02,6.57-1.2,1.97-3.13,3.38-5.37,3.92v-.02ZM632.32,70.25l-17.26,4.19c-3.07.9-6.38.04-8.62-2.24s-3.05-5.6-2.11-8.65,3.49-5.34,6.62-5.95l17.26-4.19c4.55-.89,9,1.95,10.1,6.46s-1.54,9.08-5.99,10.38h0ZM580.53,82.84l-17.26,4.19c-4.55.89-9-1.95-10.1-6.46s1.54-9.08,5.99-10.38l17.26-4.19c3.07-.9,6.38-.04,8.62,2.24s3.05,5.6,2.11,8.65-3.49,5.34-6.62,5.95h0ZM528.75,95.43l-17.26,4.19c-3.07.9-6.38.04-8.62-2.24s-3.05-5.6-2.11-8.65c.94-3.05,3.49-5.34,6.62-5.95l17.26-4.19c3.07-.9,6.38-.04,8.62,2.24s3.05,5.6,2.11,8.65-3.49,5.34-6.62,5.95h0ZM476.96,108.02l-17.26,4.19c-4.55.89-9-1.95-10.1-6.46-1.1-4.51,1.54-9.08,5.99-10.38l17.26-4.19c3.07-.9,6.38-.04,8.62,2.24,2.24,2.28,3.05,5.6,2.11,8.65-.94,3.05-3.49,5.34-6.62,5.95h0ZM425.18,120.6l-17.26,4.19c-4.55.89-9-1.95-10.1-6.46s1.54-9.08,5.99-10.38l17.26-4.19c3.07-.9,6.38-.04,8.62,2.24s3.05,5.6,2.11,8.65-3.49,5.34-6.62,5.95h0ZM373.39,133.18l-17.26,4.2c-4.54.87-8.97-1.98-10.06-6.47s1.53-9.05,5.96-10.37l17.25-4.2c3.07-.9,6.38-.04,8.62,2.24s3.05,5.6,2.11,8.65-3.49,5.34-6.62,5.95h0ZM321.61,145.77l-17.11,4.15c-4.67,1.14-9.38-1.7-10.55-6.36-.56-2.23-.21-4.58.97-6.55s3.11-3.38,5.34-3.92l17.22-4.21c4.55-.89,9,1.95,10.1,6.46s-1.54,9.08-5.99,10.38l.03.03v.02Z"/>
  </g>
  <g id="Layer_2">
    <g id="_x31_00---Movies">
      <path id="Shape8" class="st3" d="M170.96,340.03v.78H24.13c-3.32-.02-6.34-1.92-7.78-4.91s-1.05-6.54,1.01-9.15l20.83-26.03c1.64-2.07,4.13-3.29,6.77-3.3h47.99l78.01,42.61h0Z"/>
      <circle id="Oval" class="st8" cx="183.97" cy="223.66" r="117.15"/>
      <path id="Shape9" class="st9" d="M183.97,349.49c-69.49,0-125.83-56.34-125.83-125.83s56.34-125.83,125.83-125.83,125.83,56.34,125.83,125.83c-.08,69.46-56.37,125.75-125.83,125.83h0ZM183.97,115.19c-59.91,0-108.47,48.57-108.47,108.47s48.57,108.47,108.47,108.47,108.47-48.57,108.47-108.47c-.07-59.88-48.59-108.41-108.47-108.47Z"/>
      <g class="st5">
        <circle id="Oval1" class="st4" cx="173.97" cy="154.24" r="21.69"/>
        <circle id="Oval2" class="st4" cx="173.97" cy="293.08" r="21.69"/>
        <circle id="Oval3" class="st4" cx="173.97" cy="154.24" r="21.69"/>
        <circle id="Oval4" class="st4" cx="173.97" cy="293.08" r="21.69"/>
        <circle id="Oval5" class="st4" cx="173.97" cy="223.66" r="21.69"/>
        <circle id="Oval6" class="st4" cx="173.97" cy="223.66" r="21.69"/>
        <circle id="Oval7" class="st4" cx="113.85" cy="188.95" r="21.69"/>
        <circle id="Oval8" class="st4" cx="234.1" cy="258.37" r="21.69"/>
        <circle id="Oval9" class="st4" cx="113.85" cy="188.95" r="21.69"/>
        <circle id="Oval10" class="st4" cx="234.1" cy="258.37" r="21.69"/>
        <circle id="Oval11" class="st4" cx="234.1" cy="188.95" r="21.69"/>
        <circle id="Oval12" class="st4" cx="113.85" cy="258.37" r="21.69"/>
        <circle id="Oval13" class="st4" cx="234.1" cy="188.95" r="21.69"/>
        <circle id="Oval14" class="st4" cx="113.85" cy="258.37" r="21.69"/>
      </g>
      <g class="st2">
        <text class="st1" transform="translate(93.39 302.89)"><tspan x="0" y="0">C</tspan></text>
      </g>
    </g>
  </g>
</svg>